# xmcd
#
# Track frame offsets: 
#        150
#        18303
#        37403
#        57558
#        71212
#        82454
#        95331
#        106484
#        118747
#        133275
#        148474
#        173796
#        199436
#        215297
#        233153
#        249946
#        263191
#        277345
#
# Disc length: 3863 seconds
#
# Revision: 1
# Processed by: cddbd v1.5.2PL0 Copyright (c) Steve Scherf et al.
# Submitted via: ExactAudioCopy v0.95b2
#
DISCID=2f0f1512
DTITLE=The Rattles - The Greatest Hits [CD 3)
DYEAR=2001
DGENRE=Rock
TTITLE0=Hot Wheels
TTITLE1=Runaway
TTITLE2=We Built This City
TTITLE3=Dream
TTITLE4=(You better) Keep On Running
TTITLE5=Sense Of Life
TTITLE6=Lady Love
TTITLE7=Ice On Fire
TTITLE8=Man Of Sorrow
TTITLE9=Little Suzy
TTITLE10=Medley - (A) Hippy Hippy Shake (B) Hey Mona
TTITLE11=Medley - (A) Love Of My Life (B) La La La La La
TTITLE12=Breakfast In Bed
TTITLE13=Stay Young
TTITLE14=No Way Out
TTITLE15=Hot Banana
TTITLE16=Alabama
TTITLE17=Everybody Loves A Lover
EXTD=YEAR: 2001
EXTT0=
EXTT1=
EXTT2=
EXTT3=
EXTT4=
EXTT5=
EXTT6=
EXTT7=
EXTT8=
EXTT9=
EXTT10=
EXTT11=
EXTT12=
EXTT13=
EXTT14=
EXTT15=
EXTT16=
EXTT17=
PLAYORDER=
